rat_emergent_best
version=1
nRows=83
nColumns=15
inDegrees=yes
endheader
time	sacrum_pitch	sacrum_roll	sacrum_yaw	sacrum_x	sacrum_y	sacrum_z	sacroiliac_flx	hip_flx	hip_add	hip_int	knee_flx	ankle_flx	ankle_add	ankle_int
4.500000	22.370217	0.000000	0.000000	0.000000	0.050000	0.000000	3.700000	51.036971	-10.000000	0.000000	-139.927271	18.849306	-5.000000	0.000000
4.500800	22.370217	0.000000	0.000000	0.000000	0.050000	0.000000	3.700000	50.955931	-10.000000	0.000000	-139.882982	18.841369	-5.000000	0.000000
4.501600	22.370217	0.000000	0.000000	0.000000	0.050000	0.000000	3.700000	50.872751	-10.000000	0.000000	-139.837669	18.833057	-5.000000	0.000000
4.502400	22.370217	0.000000	0.000000	0.000000	0.050000	0.000000	3.700000	50.787557	-10.000000	0.000000	-139.791381	18.824385	-5.000000	0.000000
4.503200	22.370217	0.000000	0.000000	0.000000	0.050000	0.000000	3.700000	50.700471	-10.000000	0.000000	-139.744164	18.815367	-5.000000	0.000000
4.504000	22.370217	0.000000	0.000000	0.000000	0.050000	0.000000	3.700000	50.611610	-10.000000	0.000000	-139.696060	18.806017	-5.000000	0.000000
4.504800	22.370217	0.000000	0.000000	0.000000	0.050000	0.000000	3.700000	50.521082	-10.000000	0.000000	-139.647109	18.796348	-5.000000	0.000000
4.505600	22.370217	0.000000	0.000000	0.000000	0.050000	0.000000	3.700000	50.428993	-10.000000	0.000000	-139.597348	18.786372	-5.000000	0.000000
4.506400	22.370217	0.000000	0.000000	0.000000	0.050000	0.000000	3.700000	50.335439	-10.000000	0.000000	-139.546812	18.776104	-5.000000	0.000000
4.507200	22.370217	0.000000	0.000000	0.000000	0.050000	0.000000	3.700000	50.240514	-10.000000	0.000000	-139.495532	18.765554	-5.000000	0.000000
4.508000	22.370217	0.000000	0.000000	0.000000	0.050000	0.000000	3.700000	50.144304	-10.000000	0.000000	-139.443539	18.754734	-5.000000	0.000000
4.508800	22.370217	0.000000	0.000000	0.000000	0.050000	0.000000	3.700000	50.046889	-10.000000	0.000000	-139.390860	18.743655	-5.000000	0.000000
4.509600	22.370217	0.000000	0.000000	0.000000	0.050000	0.000000	3.700000	49.948345	-10.000000	0.000000	-139.337522	18.732329	-5.000000	0.000000
4.510400	22.370217	0.000000	0.000000	0.000000	0.050000	0.000000	3.700000	49.848741	-10.000000	0.000000	-139.283549	18.720765	-5.000000	0.000000
4.511200	22.370217	0.000000	0.000000	0.000000	0.050000	0.000000	3.700000	49.748142	-10.000000	0.000000	-139.228962	18.708974	-5.000000	0.000000
4.512000	22.370217	0.000000	0.000000	0.000000	0.050000	0.000000	3.700000	49.646608	-10.000000	0.000000	-139.173783	18.696964	-5.000000	0.000000
4.512800	22.370217	0.000000	0.000000	0.000000	0.050000	0.000000	3.700000	49.544194	-10.000000	0.000000	-139.118032	18.684745	-5.000000	0.000000
4.513600	22.370217	0.000000	0.000000	0.000000	0.050000	0.000000	3.700000	49.440952	-10.000000	0.000000	-139.061725	18.672325	-5.000000	0.000000
4.514400	22.370217	0.000000	0.000000	0.000000	0.050000	0.000000	3.700000	49.336927	-10.000000	0.000000	-139.004881	18.659712	-5.000000	0.000000
4.515200	22.370217	0.000000	0.000000	0.000000	0.050000	0.000000	3.700000	49.232164	-10.000000	0.000000	-138.947515	18.646914	-5.000000	0.000000
4.516000	22.370217	0.000000	0.000000	0.000000	0.050000	0.000000	3.700000	49.126702	-10.000000	0.000000	-138.889641	18.633939	-5.000000	0.000000
4.516800	22.370217	0.000000	0.000000	0.000000	0.050000	0.000000	3.700000	49.020577	-10.000000	0.000000	-138.831273	18.620792	-5.000000	0.000000
4.517600	22.370217	0.000000	0.000000	0.000000	0.050000	0.000000	3.700000	48.913822	-10.000000	0.000000	-138.772424	18.607482	-5.000000	0.000000
4.518400	22.370217	0.000000	0.000000	0.000000	0.050000	0.000000	3.700000	48.806468	-10.000000	0.000000	-138.713106	18.594014	-5.000000	0.000000
4.519200	22.370217	0.000000	0.000000	0.000000	0.050000	0.000000	3.700000	48.698544	-10.000000	0.000000	-138.653329	18.580394	-5.000000	0.000000
4.520000	22.370217	0.000000	0.000000	0.000000	0.050000	0.000000	3.700000	48.590075	-10.000000	0.000000	-138.593105	18.566628	-5.000000	0.000000
4.520800	22.370217	0.000000	0.000000	0.000000	0.050000	0.000000	3.700000	48.481084	-10.000000	0.000000	-138.532443	18.552721	-5.000000	0.000000
4.521600	22.370217	0.000000	0.000000	0.000000	0.050000	0.000000	3.700000	48.371594	-10.000000	0.000000	-138.471353	18.538678	-5.000000	0.000000
4.522400	22.370217	0.000000	0.000000	0.000000	0.050000	0.000000	3.700000	48.261625	-10.000000	0.000000	-138.409843	18.524503	-5.000000	0.000000
4.523200	22.370217	0.000000	0.000000	0.000000	0.050000	0.000000	3.700000	48.151193	-10.000000	0.000000	-138.347921	18.510202	-5.000000	0.000000
4.524000	22.370217	0.000000	0.000000	0.000000	0.050000	0.000000	3.700000	48.040317	-10.000000	0.000000	-138.285595	18.495779	-5.000000	0.000000
4.524800	22.370217	0.000000	0.000000	0.000000	0.050000	0.000000	3.700000	47.929010	-10.000000	0.000000	-138.222873	18.481237	-5.000000	0.000000
4.525600	22.370217	0.000000	0.000000	0.000000	0.050000	0.000000	3.700000	47.817286	-10.000000	0.000000	-138.159760	18.466580	-5.000000	0.000000
4.526400	22.370217	0.000000	0.000000	0.000000	0.050000	0.000000	3.700000	47.705158	-10.000000	0.000000	-138.096264	18.451813	-5.000000	0.000000
4.527200	22.370217	0.000000	0.000000	0.000000	0.050000	0.000000	3.700000	47.592638	-10.000000	0.000000	-138.032389	18.436938	-5.000000	0.000000
4.528000	22.370217	0.000000	0.000000	0.000000	0.050000	0.000000	3.700000	47.479736	-10.000000	0.000000	-137.968142	18.421959	-5.000000	0.000000
4.528800	22.370217	0.000000	0.000000	0.000000	0.050000	0.000000	3.700000	47.366461	-10.000000	0.000000	-137.903528	18.406879	-5.000000	0.000000
4.529600	22.370217	0.000000	0.000000	0.000000	0.050000	0.000000	3.700000	47.252824	-10.000000	0.000000	-137.838552	18.391700	-5.000000	0.000000
4.530400	22.370217	0.000000	0.000000	0.000000	0.050000	0.000000	3.700000	47.138831	-10.000000	0.000000	-137.773218	18.376426	-5.000000	0.000000
4.531200	22.370217	0.000000	0.000000	0.000000	0.050000	0.000000	3.700000	47.024491	-10.000000	0.000000	-137.707531	18.361060	-5.000000	0.000000
4.532000	22.370217	0.000000	0.000000	0.000000	0.050000	0.000000	3.700000	46.909811	-10.000000	0.000000	-137.641494	18.345603	-5.000000	0.000000
4.532800	22.370217	0.000000	0.000000	0.000000	0.050000	0.000000	3.700000	46.794797	-10.000000	0.000000	-137.575113	18.330058	-5.000000	0.000000
4.533600	22.370217	0.000000	0.000000	0.000000	0.050000	0.000000	3.700000	46.679456	-10.000000	0.000000	-137.508389	18.314427	-5.000000	0.000000
4.534400	22.370217	0.000000	0.000000	0.000000	0.050000	0.000000	3.700000	46.563793	-10.000000	0.000000	-137.441328	18.298712	-5.000000	0.000000
4.535200	22.370217	0.000000	0.000000	0.000000	0.050000	0.000000	3.700000	46.447813	-10.000000	0.000000	-137.373931	18.282916	-5.000000	0.000000
4.536000	22.370217	0.000000	0.000000	0.000000	0.050000	0.000000	3.700000	46.331522	-10.000000	0.000000	-137.306203	18.267040	-5.000000	0.000000
4.536800	22.370217	0.000000	0.000000	0.000000	0.050000	0.000000	3.700000	46.217763	-10.000000	0.000000	-137.246656	18.261088	-5.000000	0.000000
4.537600	22.370217	0.000000	0.000000	0.000000	0.050000	0.000000	3.700000	46.110829	-10.000000	0.000000	-137.198359	18.257756	-5.000000	0.000000
4.538400	22.370217	0.000000	0.000000	0.000000	0.050000	0.000000	3.700000	46.007555	-10.000000	0.000000	-137.151508	18.254155	-5.000000	0.000000
4.539200	22.370217	0.000000	0.000000	0.000000	0.050000	0.000000	3.700000	45.906290	-10.000000	0.000000	-137.104993	18.250474	-5.000000	0.000000
4.540000	22.370217	0.000000	0.000000	0.000000	0.050000	0.000000	3.700000	45.806022	-10.000000	0.000000	-137.058641	18.246787	-5.000000	0.000000
4.540800	22.370217	0.000000	0.000000	0.000000	0.050000	0.000000	3.700000	45.706106	-10.000000	0.000000	-137.012392	18.243138	-5.000000	0.000000
4.541600	22.370217	0.000000	0.000000	0.000000	0.050000	0.000000	3.700000	45.606131	-10.000000	0.000000	-136.966212	18.239554	-5.000000	0.000000
4.542400	22.370217	0.000000	0.000000	0.000000	0.050000	0.000000	3.700000	45.505847	-10.000000	0.000000	-136.920085	18.236053	-5.000000	0.000000
4.543200	22.370217	0.000000	0.000000	0.000000	0.050000	0.000000	3.700000	45.405106	-10.000000	0.000000	-136.874004	18.232643	-5.000000	0.000000
4.544000	22.370217	0.000000	0.000000	0.000000	0.050000	0.000000	3.700000	45.303809	-10.000000	0.000000	-136.827872	18.229270	-5.000000	0.000000
4.544800	22.370217	0.000000	0.000000	0.000000	0.050000	0.000000	3.700000	45.201874	-10.000000	0.000000	-136.781528	18.225904	-5.000000	0.000000
4.545600	22.370217	0.000000	0.000000	0.000000	0.050000	0.000000	3.700000	45.099272	-10.000000	0.000000	-136.734957	18.222550	-5.000000	0.000000
4.546400	22.370217	0.000000	0.000000	0.000000	0.050000	0.000000	3.700000	44.995999	-10.000000	0.000000	-136.688168	18.219211	-5.000000	0.000000
4.547200	22.370217	0.000000	0.000000	0.000000	0.050000	0.000000	3.700000	44.892069	-10.000000	0.000000	-136.641174	18.215886	-5.000000	0.000000
4.548000	22.370217	0.000000	0.000000	0.000000	0.050000	0.000000	3.700000	44.787504	-10.000000	0.000000	-136.593989	18.212577	-5.000000	0.000000
4.548800	22.370217	0.000000	0.000000	0.000000	0.050000	0.000000	3.700000	44.682330	-10.000000	0.000000	-136.546627	18.209284	-5.000000	0.000000
4.549600	22.370217	0.000000	0.000000	0.000000	0.050000	0.000000	3.700000	44.576575	-10.000000	0.000000	-136.499100	18.206007	-5.000000	0.000000
4.550400	22.370217	0.000000	0.000000	0.000000	0.050000	0.000000	3.700000	44.470268	-10.000000	0.000000	-136.451420	18.202747	-5.000000	0.000000
4.551200	22.370217	0.000000	0.000000	0.000000	0.050000	0.000000	3.700000	44.363437	-10.000000	0.000000	-136.403600	18.199505	-5.000000	0.000000
4.552000	22.370217	0.000000	0.000000	0.000000	0.050000	0.000000	3.700000	44.256108	-10.000000	0.000000	-136.355651	18.196282	-5.000000	0.000000
4.552800	22.370217	0.000000	0.000000	0.000000	0.050000	0.000000	3.700000	44.148309	-10.000000	0.000000	-136.307585	18.193079	-5.000000	0.000000
4.553600	22.370217	0.000000	0.000000	0.000000	0.050000	0.000000	3.700000	44.040060	-10.000000	0.000000	-136.259414	18.189897	-5.000000	0.000000
4.554400	22.370217	0.000000	0.000000	0.000000	0.050000	0.000000	3.700000	43.931385	-10.000000	0.000000	-136.211151	18.186738	-5.000000	0.000000
4.555200	22.370217	0.000000	0.000000	0.000000	0.050000	0.000000	3.700000	43.822302	-10.000000	0.000000	-136.162806	18.183604	-5.000000	0.000000
4.556000	22.370217	0.000000	0.000000	0.000000	0.050000	0.000000	3.700000	43.712830	-10.000000	0.000000	-136.114390	18.180497	-5.000000	0.000000
4.556800	22.370217	0.000000	0.000000	0.000000	0.050000	0.000000	3.700000	43.602984	-10.000000	0.000000	-136.065913	18.177417	-5.000000	0.000000
4.557600	22.370217	0.000000	0.000000	0.000000	0.050000	0.000000	3.700000	43.492780	-10.000000	0.000000	-136.017385	18.174367	-5.000000	0.000000
4.558400	22.370217	0.000000	0.000000	0.000000	0.050000	0.000000	3.700000	43.382230	-10.000000	0.000000	-135.968815	18.171350	-5.000000	0.000000
4.559200	22.370217	0.000000	0.000000	0.000000	0.050000	0.000000	3.700000	43.271348	-10.000000	0.000000	-135.920211	18.168366	-5.000000	0.000000
4.560000	22.370217	0.000000	0.000000	0.000000	0.050000	0.000000	3.700000	43.160143	-10.000000	0.000000	-135.871582	18.165417	-5.000000	0.000000
4.560800	22.370217	0.000000	0.000000	0.000000	0.050000	0.000000	3.700000	43.048627	-10.000000	0.000000	-135.822936	18.162506	-5.000000	0.000000
4.561600	22.370217	0.000000	0.000000	0.000000	0.050000	0.000000	3.700000	42.936808	-10.000000	0.000000	-135.774279	18.159634	-5.000000	0.000000
4.562400	22.370217	0.000000	0.000000	0.000000	0.050000	0.000000	3.700000	42.824694	-10.000000	0.000000	-135.725620	18.156803	-5.000000	0.000000
4.563200	22.370217	0.000000	0.000000	0.000000	0.050000	0.000000	3.700000	42.712294	-10.000000	0.000000	-135.676964	18.154014	-5.000000	0.000000
4.564000	22.370217	0.000000	0.000000	0.000000	0.050000	0.000000	3.700000	42.599613	-10.000000	0.000000	-135.628320	18.151270	-5.000000	0.000000
4.564800	22.370217	0.000000	0.000000	0.000000	0.050000	0.000000	3.700000	42.486659	-10.000000	0.000000	-135.579692	18.148571	-5.000000	0.000000
4.565600	22.370217	0.000000	0.000000	0.000000	0.050000	0.000000	3.700000	42.373436	-10.000000	0.000000	-135.531088	18.145920	-5.000000	0.000000
